<svg width="92" height="24" viewBox="0 0 92 24" fill="none" xmlns="http://www.w3.org/2000/svg">
<g clip-path="url(#clip0_7346_926)">
<path d="M11.4251 0.675373L10.7741 3.7122C9.47273 3.23027 8.07487 3.03711 6.79727 3.03711C5.30295 3.03711 3.85659 3.47137 3.85659 4.98979C3.85659 6.29149 4.91718 6.9178 7.3518 7.9302C10.4127 9.18393 12.4857 10.4371 12.4857 13.6907C12.4857 17.4031 9.2798 19.1383 5.64022 19.1383C3.95331 19.1383 1.83213 18.8489 0 18.198L0.675093 15.1124C2.33817 15.788 4.17003 16.1012 5.51995 16.1012C7.56853 16.1012 8.70113 15.3776 8.70113 13.9556C8.70113 12.5816 7.5926 11.9071 5.06212 10.8947C2.12118 9.71353 0.0726073 8.2192 0.0726073 5.375C0.0726073 1.51841 3.42287 0 6.58053 0C8.3642 0.000554267 10.0752 0.241659 11.4251 0.675373Z" fill="#C80064"/>
<path d="M28.7067 11.9575C28.7067 16.4165 25.9347 19.1402 21.7409 19.1402C17.4747 19.1402 14.7513 16.4165 14.7513 11.9575C14.7513 7.49833 17.4747 4.82292 21.7409 4.82292C25.9835 4.82264 28.7067 7.49807 28.7067 11.9575ZM25.0432 11.9575C25.0432 9.37847 23.9585 7.5948 21.7409 7.5948C19.4995 7.5948 18.4389 9.37847 18.4389 11.9575C18.4389 14.6323 19.5235 16.3686 21.7409 16.3686C23.9585 16.3686 25.0432 14.6323 25.0432 11.9575Z" fill="#C80064"/>
<path d="M31.7201 5.13375H35.3355V6.9656H35.3835C36.0827 5.56774 37.7699 4.82031 39.5294 4.82031C42.6145 4.82031 44.5909 6.7968 44.5909 9.8098V18.8239H40.9031V11.1839C40.9031 8.94187 40.3971 7.59247 38.3723 7.59247C36.9504 7.59247 35.4076 8.6046 35.4076 11.4006V18.8241H31.7201V5.13375Z" fill="#C80064"/>
<path d="M50.3759 5.13541L53.702 14.3191H53.7499L57.0282 5.13541H60.9086L53.485 23.8874H49.5802L51.7978 18.5127L46.3985 5.13541H50.3759Z" fill="#C80064"/>
<path d="M72.4553 14.3166L70.84 18.8237H66.8153L73.4913 0.3125H78.6733L85.302 18.8237H81.2287L79.5893 14.3166H72.4553ZM76.022 3.25316L73.3227 11.2554H78.698L76.022 3.25316Z" fill="#C80064"/>
<path d="M92 0.3125H88.216V18.8237H92V0.3125Z" fill="#C80064"/>
</g>
<defs>
<clipPath id="clip0_7346_926">
<rect width="92" height="24" fill="white"/>
</clipPath>
</defs>
</svg>
